PathFileType  4	(X/Y/Z) C:\Users\antoi\Documents\MyRepositories\mobilecap\ResultsAnalysis
DataRate	CameraRate	NumFrames	NumMarkers	Units	OrigDataRate	OrigDataStartFrame	OrigNumFrames
100.0	100.0	6	51	mm	100.0	76	301
Frame#	Time	r_knee			r_shank_antsup			r_ankle			r_calc			r_5meta			r_toe			L_knee			L_shank_antsup			L_ankle			L_calc			L_5meta			L_toe			r_sh2			r_sh3			r_sh4			L_sh2			L_sh3			r_thigh1			r_thigh2			r_thigh3			r_thigh4			r_thigh5			L_thigh1			L_thigh2			L_thigh3			L_thigh4			r.ASIS			r.PSIS			L.ASIS			L.PSIS			C7			R_Shoulder			L_Shoulder			R_Sternum			L_Sternum			R_humerus			R_elbow_med			R_elbow_lat			R_forearm			R_wrist_radius			R_wrist_ulna			L_humerus			L_elbow_med			L_elbow_lat			L_forearm			L_wrist_radius			L_wrist_ulna			R_HJC			L_HJC			R_HJC_reg			L_HJC_reg			
		X1	Y1	Z1	X2	Y2	Z2	X3	Y3	Z3	X4	Y4	Z4	X5	Y5	Z5	X6	Y6	Z6	X7	Y7	Z7	X8	Y8	Z8	X9	Y9	Z9	X10	Y10	Z10	X11	Y11	Z11	X12	Y12	Z12	X13	Y13	Z13	X14	Y14	Z14	X15	Y15	Z15	X16	Y16	Z16	X17	Y17	Z17	X18	Y18	Z18	X19	Y19	Z19	X20	Y20	Z20	X21	Y21	Z21	X22	Y22	Z22	X23	Y23	Z23	X24	Y24	Z24	X25	Y25	Z25	X26	Y26	Z26	X27	Y27	Z27	X28	Y28	Z28	X29	Y29	Z29	X30	Y30	Z30	X31	Y31	Z31	X32	Y32	Z32	X33	Y33	Z33	X34	Y34	Z34	X35	Y35	Z35	X36	Y36	Z36	X37	Y37	Z37	X38	Y38	Z38	X39	Y39	Z39	X40	Y40	Z40	X41	Y41	Z41	X42	Y42	Z42	X43	Y43	Z43	X44	Y44	Z44	X45	Y45	Z45	X46	Y46	Z46	X47	Y47	Z47	X48	Y48	Z48	X49	Y49	Z49	X50	Y50	Z50	X51	Y51	Z51	

76	0.75000000	-1150.74310	802.14223	-426.61460	-1183.13311	758.30623	-398.13825	-1237.12730	407.41403	-457.76335	-1294.94466	366.76670	-511.42859	-1117.96743	347.24230	-413.75368	-1075.31721	367.82344	-468.16407	-1146.09266	798.29464	-737.47056	-1128.15952	710.02836	-746.36373	-1237.78824	406.75757	-710.59486	-1299.68529	370.51100	-666.26042	-1122.98990	351.36519	-737.69081	-1077.86822	368.94771	-682.86053	-1200.39334	644.99991	-395.24285	-1115.16866	751.90165	-435.27368	-1133.23407	640.00510	-445.76423	-1211.07197	737.09467	-760.97984	-1235.48003	617.24975	-756.64187	-1143.87263	1096.25255	-389.22954	-1133.40200	981.61318	-384.47905	-1084.56338	966.88814	-409.30370	-1082.44508	1097.63748	-479.86500	-1066.59719	987.90572	-469.69693	-1131.01869	1121.23040	-760.54333	-1121.04449	978.98881	-767.05764	-1242.81668	1112.77193	-760.11015	-1234.37478	972.31955	-740.73180	-1096.97715	1262.18373	-455.18448	-1279.76911	1323.72620	-534.30765	-1097.13164	1243.51223	-689.25495	-1280.25375	1322.84250	-632.18097	-1098.06930	1771.16689	-599.19435	-1055.84501	1725.67297	-436.12157	-1060.24690	1711.34728	-750.25607	-1026.75166	1644.88201	-575.34755	-1027.54978	1642.62065	-610.10376	-1080.66274	1495.10394	-352.85102	-1159.86465	1412.24446	-363.85547	-1112.25752	1409.90084	-319.39264	-1034.83801	1288.52981	-349.04363	-985.56257	1207.70083	-394.09571	-1009.59057	1189.92708	-361.55553	-1107.25682	1484.46294	-825.30358	-1175.84446	1389.04388	-785.86518	-1150.42098	1389.44256	-841.66054	-1074.38850	1263.80126	-838.25630	-1018.58590	1175.08366	-806.36181	-1055.83384	1156.66316	-823.09115	-1185.25510	1192.97870	-486.50625	-1194.51362	1191.58418	-676.94754	-1176.87686	1195.05606	-486.50952	-1177.64409	1193.65621	-641.47827	
77	0.76000000	-1149.52530	801.85030	-426.93838	-1181.93090	758.18627	-398.50460	-1237.02806	407.57626	-457.81424	-1294.92058	366.79003	-511.42998	-1117.96803	347.25805	-413.75365	-1075.29255	367.78124	-468.19762	-1145.63916	798.24110	-737.52048	-1127.79261	709.77699	-746.23985	-1237.77684	406.75541	-710.59963	-1299.69464	370.49580	-666.26330	-1122.98276	351.32739	-737.73480	-1077.87704	368.93960	-682.87899	-1199.73884	645.60000	-395.06547	-1113.86737	751.57418	-435.59260	-1132.33855	639.65521	-446.05369	-1210.62666	737.11633	-761.21144	-1235.19105	617.18828	-756.61052	-1143.39658	1095.77783	-389.20832	-1132.59292	981.30503	-384.51762	-1083.75168	966.60701	-409.28286	-1082.37642	1098.08965	-480.24277	-1066.32944	987.66450	-470.46139	-1130.76359	1120.97092	-760.53782	-1120.72752	978.90538	-767.12287	-1242.51917	1112.59390	-760.33456	-1234.13275	972.12689	-740.50036	-1096.80448	1262.38782	-455.19411	-1279.31382	1323.73401	-534.25488	-1096.65159	1243.22449	-688.86260	-1279.78796	1322.90829	-632.10750	-1094.96413	1770.35394	-599.24926	-1052.88274	1724.75002	-436.03254	-1057.23040	1710.24454	-750.63203	-1024.24006	1643.81642	-575.31938	-1025.06661	1641.44647	-609.88777	-1080.77335	1494.23707	-352.47697	-1160.84900	1412.77113	-364.41361	-1114.25172	1409.35430	-319.95372	-1040.92287	1284.98109	-345.96356	-994.71739	1201.06148	-388.81981	-1019.71272	1185.09036	-356.28675	-1106.93029	1483.79108	-825.60550	-1176.51442	1389.41218	-785.70597	-1151.37282	1389.57523	-841.57270	-1078.88554	1261.93844	-839.98732	-1025.85484	1171.07615	-809.16517	-1063.57558	1154.05342	-826.14348	-1184.98245	1193.12097	-486.22429	-1194.12085	1191.42815	-676.66837	-1176.46294	1194.99849	-486.48061	-1177.21237	1193.69247	-641.21307	
78	0.77000000	-1148.29804	801.51721	-427.42506	-1180.75315	758.25829	-398.44509	-1236.94509	407.57346	-457.83670	-1294.90140	366.81686	-511.43175	-1117.96592	347.29152	-413.75868	-1075.26928	367.73892	-468.22168	-1145.30553	798.11818	-737.38165	-1127.45746	709.52807	-746.16253	-1237.75905	406.74365	-710.61018	-1299.71668	370.46299	-666.26240	-1122.98887	351.31504	-737.75240	-1077.83590	368.97279	-682.93532	-1198.75162	645.36720	-395.13313	-1112.59957	751.27633	-435.74804	-1131.38092	639.25131	-446.31375	-1210.29226	737.05330	-761.28633	-1234.93418	617.11320	-756.63901	-1142.95114	1095.35830	-389.23930	-1131.76852	980.97950	-384.69613	-1082.90817	966.38037	-409.35066	-1081.91660	1098.13300	-480.98433	-1065.80499	987.26014	-471.46450	-1130.51925	1120.73085	-760.42592	-1120.35350	978.79913	-767.26057	-1242.25153	1112.38346	-760.51035	-1233.86964	971.90951	-740.49879	-1096.41807	1262.42465	-455.30154	-1278.90514	1323.76498	-534.17291	-1096.41471	1242.88610	-688.64037	-1279.29528	1322.94068	-631.92060	-1091.80238	1769.54222	-599.36939	-1049.85689	1723.83156	-435.76097	-1054.05030	1709.06289	-750.87574	-1021.63945	1642.73391	-575.36843	-1022.52150	1640.25926	-609.58356	-1080.78122	1493.39196	-352.14307	-1161.74517	1413.62445	-364.71927	-1116.07968	1409.03153	-320.46995	-1047.31919	1281.57109	-342.62677	-1004.47540	1194.55858	-383.22147	-1030.57232	1180.49498	-350.52276	-1106.82052	1483.11326	-825.88150	-1177.51073	1389.92196	-785.64975	-1152.71081	1389.90416	-841.66215	-1083.72288	1260.35600	-841.78894	-1033.46697	1167.51671	-812.06585	-1071.66148	1151.87123	-829.32785	-1184.65780	1193.17990	-486.00261	-1193.91747	1191.24223	-676.43947	-1176.17347	1194.91638	-486.59109	-1176.78982	1193.61276	-641.12648	
79	0.78000000	-1147.04983	801.19810	-427.92293	-1179.54837	758.19522	-398.28816	-1236.80869	407.65140	-457.82477	-1294.90376	366.82587	-511.42806	-1117.94474	347.32653	-413.79298	-1075.23307	367.70254	-468.23543	-1145.07149	797.96563	-737.22694	-1127.14519	709.38589	-746.25454	-1237.74083	406.72888	-710.63769	-1299.74829	370.42897	-666.25580	-1123.01088	351.34263	-737.72715	-1077.80954	368.98471	-682.96718	-1197.35741	644.22805	-395.51308	-1111.38672	750.89693	-435.92547	-1130.52130	638.96270	-446.51274	-1209.98530	736.95103	-761.27819	-1234.70531	617.05430	-756.71504	-1142.49812	1094.99687	-389.15310	-1130.97112	980.61772	-384.96709	-1082.05754	966.18081	-409.64473	-1081.56580	1097.77752	-481.85512	-1065.12942	986.98422	-472.05866	-1129.98017	1120.66427	-759.93035	-1120.00644	978.61201	-767.46161	-1241.99932	1112.19822	-760.66015	-1233.33570	972.09708	-742.34970	-1095.86264	1261.54214	-455.35298	-1278.51643	1323.76692	-533.96605	-1096.29300	1242.58653	-688.45107	-1278.83441	1323.02626	-631.72271	-1088.54190	1768.68169	-599.43750	-1046.73212	1722.93895	-435.46033	-1050.76167	1707.86391	-751.09202	-1019.03494	1641.60844	-575.50505	-1019.88660	1639.09716	-609.42411	-1080.71951	1492.70719	-351.82172	-1162.61344	1414.63825	-364.76870	-1117.66029	1409.00591	-320.75978	-1054.15161	1278.35108	-339.07635	-1014.81822	1188.58322	-377.08195	-1042.18250	1176.26019	-344.43247	-1106.97181	1482.50845	-826.15478	-1178.75931	1390.61501	-785.72394	-1154.40510	1390.32921	-841.89155	-1088.95791	1258.97079	-843.55704	-1041.34963	1164.40550	-815.06810	-1080.17130	1150.11024	-832.68297	-1184.51655	1192.72150	-486.05213	-1193.90060	1191.17964	-676.48575	-1176.11152	1194.63374	-486.72647	-1176.61349	1193.46366	-641.07475	
80	0.79000000	-1145.81183	800.91926	-428.14152	-1178.30102	757.86242	-398.30625	-1236.55474	407.82451	-457.75862	-1294.93003	366.80519	-511.43551	-1117.91664	347.34471	-413.83082	-1075.19576	367.68033	-468.24739	-1144.83002	797.83471	-737.23962	-1126.86692	709.33835	-746.42731	-1237.72984	406.71662	-710.67743	-1299.79037	370.38637	-666.23212	-1123.03786	351.38831	-737.68960	-1077.95619	368.90313	-682.95997	-1196.12457	643.54313	-395.96042	-1110.11476	750.39890	-436.27287	-1129.79116	638.78077	-446.70355	-1209.66229	736.84252	-761.24387	-1234.51084	616.99496	-756.83183	-1142.00638	1094.42763	-389.16996	-1130.17156	980.23203	-385.15419	-1081.20170	965.70111	-409.89554	-1081.40651	1097.48407	-482.14153	-1064.44007	986.93661	-472.23817	-1129.14993	1120.67638	-758.93889	-1119.76103	978.40944	-767.59664	-1241.72276	1112.05373	-760.90397	-1232.62238	972.62120	-745.46624	-1095.29477	1260.12601	-455.40005	-1278.18236	1323.69231	-533.72278	-1096.09298	1242.30856	-688.26796	-1278.41240	1323.12471	-631.53082	-1085.16597	1767.72363	-599.43360	-1043.43627	1722.07798	-435.30054	-1047.42075	1706.69116	-751.35080	-1016.32733	1640.45537	-575.45282	-1017.13015	1637.93613	-609.48244	-1080.57994	1492.05823	-351.53828	-1163.41799	1415.65306	-364.88334	-1119.15185	1409.08949	-320.96588	-1061.45815	1275.39247	-335.37800	-1025.94148	1183.19373	-370.45847	-1054.46931	1172.58687	-338.27625	-1107.37260	1482.02992	-826.52513	-1180.25765	1391.48793	-785.95038	-1156.35123	1390.91873	-842.19291	-1094.47226	1257.88647	-845.52009	-1049.50632	1161.72066	-818.10445	-1088.89035	1148.80699	-836.04759	-1184.49640	1191.92815	-486.29141	-1193.91008	1191.18671	-676.72809	-1176.15272	1194.17966	-486.94028	-1176.51530	1193.28506	-641.08107	
81	0.80000000	-1144.59922	800.64610	-428.11991	-1176.86612	757.54623	-398.55290	-1236.21016	407.93611	-457.61752	-1294.98007	366.75754	-511.46938	-1117.92570	347.36600	-413.83644	-1075.19375	367.70907	-468.24073	-1144.51837	797.72114	-737.35245	-1126.60929	709.26647	-746.52324	-1237.73599	406.69798	-710.70501	-1299.85308	370.31873	-666.18594	-1123.09340	351.42109	-737.62571	-1078.06657	368.87148	-682.95639	-1195.25304	644.16418	-396.20800	-1108.75677	749.85502	-436.66823	-1128.96329	638.53749	-447.04578	-1209.35557	736.73069	-761.16707	-1234.32074	616.96453	-756.99729	-1141.51149	1093.64104	-389.40983	-1129.34468	979.82804	-385.25017	-1080.34050	964.96863	-410.02278	-1080.51965	1097.25144	-481.47266	-1063.85444	986.85628	-472.57450	-1128.53759	1120.46690	-757.73538	-1119.55456	978.25043	-767.52294	-1241.44109	1111.87823	-761.25487	-1232.10974	972.82868	-747.30445	-1094.93262	1259.12572	-455.43879	-1277.91511	1323.56817	-533.50269	-1095.79734	1241.98406	-688.23842	-1278.06911	1323.18621	-631.31351	-1081.69249	1766.68588	-599.46122	-1039.87636	1721.14637	-435.18352	-1044.07541	1705.40766	-751.58934	-1013.43120	1639.22235	-575.15808	-1014.32368	1636.68029	-609.39185	-1080.27683	1491.23379	-351.36279	-1164.23794	1416.72305	-364.93230	-1120.66191	1409.26593	-320.92020	-1069.06457	1272.82919	-331.63518	-1037.81491	1178.19210	-363.58645	-1067.40717	1169.63748	-332.01749	-1107.95720	1481.69528	-827.03863	-1182.03365	1392.51527	-786.32758	-1158.50323	1391.76335	-842.62480	-1100.23382	1257.18929	-847.65997	-1057.98044	1159.43838	-821.10502	-1097.59413	1147.99184	-839.26200	-1184.44027	1191.32281	-486.44808	-1193.86934	1191.13421	-676.88639	-1176.12165	1193.67348	-487.15696	-1176.36409	1193.07212	-641.21988	
